# Blender v2.70 (sub 0) OBJ File: ''
# www.blender.org
mtllib ta3.mtl
o Cube.001
v -4.526778 1.000000 2.500000
v -4.526778 0.500000 2.500000
v -5.526778 0.500000 2.500000
v -5.526778 1.500000 2.500000
v -3.526778 1.000000 2.500000
v -3.526778 0.500000 2.500000
v -2.526778 1.000000 2.500001
v -2.526778 0.500000 2.500000
v -1.526778 1.000000 2.500001
v -1.526778 0.500000 2.500001
v -0.526778 1.000000 2.500001
v -0.526778 0.500000 2.500001
v 0.473222 1.000001 2.500002
v 0.473222 0.500001 2.500001
v 1.473222 1.000001 2.500002
v 1.473222 0.500001 2.500002
v 2.473222 1.000001 2.500002
v 2.473222 0.500001 2.500002
v 3.473222 1.000001 2.500002
v 3.473222 0.500001 2.500002
v 4.473222 0.500001 2.500002
v 4.473222 1.500001 2.500002
v 4.473222 1.500001 3.500003
v 4.473222 0.500001 3.500002
v 4.473222 0.500002 1.500002
v 4.473222 1.500002 1.500003
v 3.473222 1.000002 1.500003
v 3.473222 0.500002 1.500002
v 4.473222 0.500002 0.500002
v 4.473222 1.500002 0.500002
v 3.473222 1.000002 0.500002
v 3.473222 0.500002 0.500002
v 4.473222 0.500002 -0.499998
v 4.473222 1.500002 -0.499998
v 3.473222 1.000002 -0.499998
v 3.473222 0.500002 -0.499998
v 4.473222 0.500002 -1.499998
v 4.473222 1.500002 -1.499998
v 3.473222 1.000002 -1.499998
v 3.473222 0.500002 -1.499998
v 4.473222 0.500002 -2.499998
v 4.473222 1.500002 -2.499998
v 3.473222 1.000002 -2.499998
v 3.473222 0.500002 -2.499998
v 4.473222 0.500002 -3.499998
v 4.473222 1.500002 -3.499998
v 3.473222 1.000002 -3.499998
v 3.473222 0.500002 -3.499998
v 4.473222 0.500002 -4.499998
v 4.473222 1.500002 -4.499998
v 3.473222 1.000002 -4.499998
v 3.473222 0.500002 -4.499998
v 4.473222 0.500002 -5.499998
v 4.473222 1.500002 -5.499998
v 3.473222 1.000002 -5.499998
v 3.473222 0.500002 -5.499998
v 4.473222 0.500002 -6.499998
v 4.473222 1.500002 -6.499998
v -4.526778 1.000002 -5.499998
v -4.526778 0.500002 -5.499998
v -4.526778 0.500002 -4.499998
v -4.526778 1.000002 -4.499998
v -4.526778 1.000002 -4.499998
v -4.526778 0.500002 -4.499998
v -4.526778 1.000002 -3.499998
v -4.526778 0.500002 -3.499998
v -4.526778 1.000002 -2.499998
v -4.526778 0.500002 -2.499998
v -4.526778 1.000002 -1.499998
v -4.526778 0.500002 -1.499998
v -4.526778 1.000002 -0.499998
v -4.526778 0.500002 -0.499998
v -4.526778 1.000002 0.500002
v -4.526778 0.500002 0.500002
v -4.526778 1.000002 1.500002
v -4.526778 0.500002 1.500002
v -4.526778 1.000002 2.500002
v -4.526778 0.500002 2.500002
v 3.473222 1.000002 -4.499998
v 3.473222 0.500002 -4.499998
v -4.526778 1.000002 -3.499998
v -4.526778 0.500002 -3.499998
v -4.526778 0.500002 -2.499998
v -4.526778 1.000002 -2.499998
v 3.473222 0.500002 -3.499998
v 3.473222 1.000002 -3.499998
v 3.473222 1.000002 -2.499998
v 3.473222 0.500002 -2.499998
v 3.473222 1.000002 -1.499998
v 3.473222 0.500002 -1.499998
v -4.526778 0.500002 -1.499998
v -4.526778 1.000002 -1.499998
v -4.526778 1.000002 -0.499998
v -4.526778 0.500002 -0.499998
v -4.526778 0.500002 0.500002
v -4.526778 1.000002 0.500002
v 3.473222 0.500002 -0.499998
v 3.473222 1.000002 -0.499998
v 3.473222 1.000002 0.500002
v 3.473222 0.500002 0.500002
v 3.473222 1.000002 1.500002
v 3.473222 0.500002 1.500002
v -4.526778 0.500002 1.500002
v -4.526778 1.000002 1.500002
v 3.473222 0.500002 2.500002
v 3.473222 1.000002 2.500002
v 2.473222 1.000002 2.500002
v 2.473222 0.500002 2.500002
v 1.473222 1.000002 2.500002
v 1.473222 0.500002 2.500002
v 0.473222 1.000002 2.500002
v 0.473222 0.500002 2.500002
v -0.526778 1.000002 2.500002
v -0.526778 0.500002 2.500002
v -1.526778 1.000002 2.500002
v -1.526778 0.500002 2.500002
v -2.526778 1.000002 2.500002
v -2.526778 0.500002 2.500002
v -3.526778 1.000002 2.500002
v -3.526778 0.500002 2.500002
v -4.526778 1.000002 2.500002
v -4.526778 0.500002 2.500002
v 2.473222 1.000002 -5.499998
v 1.473222 1.000002 -5.499998
v 1.473222 1.000002 -4.499998
v 2.473222 1.000002 -4.499998
v -3.526778 1.000002 -5.499998
v -3.526778 1.000002 -4.499998
v 0.473222 1.000002 -4.499998
v 0.473222 1.000002 -3.499998
v 1.473222 1.000002 -3.499998
v -0.526778 1.000002 -4.499998
v -1.526778 1.000002 -4.499998
v -1.526778 1.000002 -3.499998
v -0.526778 1.000002 -3.499998
v 0.473222 1.000002 -5.499998
v -0.526778 1.000002 -5.499998
v -1.526778 1.000002 -5.499998
v -2.526778 1.000002 -5.499998
v -2.526778 1.000002 -4.499998
v 2.473222 1.000002 -3.499998
v 1.473222 1.000002 -2.499998
v 2.473222 1.000002 -2.499998
v -0.526778 1.000002 -2.499998
v 0.473222 1.000002 -2.499998
v -3.526778 1.000002 -3.499998
v -2.526778 1.000002 -3.499998
v 2.473222 1.000002 -1.499998
v 0.473222 1.000002 -1.499998
v 1.473222 1.000002 -1.499998
v -3.526778 1.000002 -2.499998
v -2.526778 1.000002 -2.499998
v -1.526778 1.000002 -2.499998
v -3.526778 1.000002 -1.499998
v -3.526778 1.000002 -0.499998
v 1.473222 1.000002 -0.499998
v 2.473222 1.000002 -0.499998
v -2.526778 1.000002 -1.499998
v -1.526778 1.000002 -1.499998
v -0.526778 1.000002 -1.499998
v -2.526778 1.000002 -0.499998
v -3.526778 1.000002 0.500002
v -2.526778 1.000002 0.500002
v 2.473222 1.000002 0.500002
v -1.526778 1.000002 -0.499998
v -0.526778 1.000002 -0.499998
v 0.473222 1.000002 -0.499998
v -1.526778 1.000002 0.500002
v -2.526778 1.000002 1.500002
v -1.526778 1.000002 1.500002
v -0.526778 1.000002 0.500002
v 0.473222 1.000002 0.500002
v 1.473222 1.000002 0.500002
v 1.473222 1.000002 1.500002
v 0.473222 1.000002 1.500002
v -0.526778 1.000002 1.500002
v 2.473222 1.000002 1.500002
v -3.526778 1.000002 1.500002
v -4.526778 0.500000 3.500000
v -5.526778 0.500000 3.500000
v -5.526778 1.500000 3.500000
v -4.526778 1.500000 3.500000
v -3.526778 1.500000 3.500000
v -2.526778 1.500000 3.500001
v -3.526778 0.500000 3.500000
v -1.526778 1.500000 3.500001
v -2.526778 0.500000 3.500000
v -0.526778 1.500000 3.500002
v -1.526778 0.500000 3.500001
v 0.473222 1.500001 3.500002
v -0.526778 0.500000 3.500001
v 1.473222 1.500001 3.500002
v 0.473222 0.500001 3.500001
v 2.473222 1.500001 3.500002
v 1.473222 0.500001 3.500002
v 3.473222 1.500001 3.500003
v 2.473222 0.500001 3.500002
v 3.473222 0.500001 3.500002
v 3.473222 0.500002 -6.499998
v 3.473222 1.500002 -6.499998
v 2.473222 1.500002 -6.499998
v 1.473222 1.500002 -6.499998
v 2.473222 0.500002 -5.499998
v 2.473222 0.500002 -6.499998
v -3.526778 0.500002 -5.499998
v -3.526778 0.500002 -4.499998
v 0.473222 1.500002 -6.499998
v 1.473222 0.500002 -5.499998
v 1.473222 0.500002 -6.499998
v -0.526778 1.500002 -6.499998
v 0.473222 0.500002 -5.499998
v 0.473222 0.500002 -6.499998
v 1.473222 0.500002 -4.499998
v 0.473222 0.500002 -4.499998
v -1.526778 1.500002 -6.499998
v -0.526778 0.500002 -5.499998
v -0.526778 0.500002 -6.499998
v -2.526778 1.500002 -6.499998
v -1.526778 0.500002 -5.499998
v -1.526778 0.500002 -6.499998
v -2.526778 0.500002 -5.499998
v -1.526778 0.500002 -4.499998
v -2.526778 0.500002 -4.499998
v -3.526778 1.500002 -6.499998
v -2.526778 0.500002 -6.499998
v -4.526778 1.500002 -6.499998
v -3.526778 0.500002 -6.499998
v -5.526778 1.500002 -6.499998
v -5.526778 1.500002 -5.499998
v -4.526778 0.500002 -6.499998
v 2.473222 0.500002 -4.499998
v -5.526778 0.500002 -5.499998
v -5.526778 0.500002 -6.499998
v -5.526778 0.500002 -4.499998
v -5.526778 0.500002 -3.499998
v -5.526778 1.500002 -4.499998
v -5.526778 0.500002 -2.499998
v -5.526778 1.500002 -3.499998
v -5.526778 0.500002 -1.499998
v -5.526778 1.500002 -2.499998
v -5.526778 0.500002 -0.499998
v -5.526778 1.500002 -1.499998
v -5.526778 0.500002 0.500002
v -5.526778 1.500002 -0.499998
v -5.526778 0.500002 1.500002
v -5.526778 1.500002 0.500002
v -5.526778 0.500002 2.500002
v -5.526778 1.500002 1.500002
v -5.526778 1.500002 2.500002
v 2.473222 0.500002 -3.499998
v 1.473222 0.500002 -3.499998
v -2.526778 0.500002 -3.499998
v -3.526778 0.500002 -3.499998
v -0.526778 0.500002 -4.499998
v 0.473222 0.500002 -3.499998
v -0.526778 0.500002 -3.499998
v 2.473222 0.500002 -2.499998
v -1.526778 0.500002 -3.499998
v -1.526778 0.500002 -2.499998
v -2.526778 0.500002 -2.499998
v 1.473222 0.500002 -2.499998
v 0.473222 0.500002 -2.499998
v -3.526778 0.500002 -2.499998
v -3.526778 0.500002 -1.499998
v -0.526778 0.500002 -2.499998
v -0.526778 0.500002 -1.499998
v -1.526778 0.500002 -1.499998
v 2.473222 0.500002 -1.499998
v 1.473222 0.500002 -1.499998
v 2.473222 0.500002 -0.499998
v 1.473222 0.500002 -0.499998
v -2.526778 0.500002 -1.499998
v -2.526778 0.500002 -0.499998
v -3.526778 0.500002 -0.499998
v 0.473222 0.500002 -1.499998
v 0.473222 0.500002 -0.499998
v -0.526778 0.500002 -0.499998
v -1.526778 0.500002 -0.499998
v -1.526778 0.500002 0.500002
v -2.526778 0.500002 0.500002
v 1.473222 0.500002 0.500002
v 0.473222 0.500002 0.500002
v -3.526778 0.500002 0.500002
v -3.526778 0.500002 1.500002
v -0.526778 0.500002 0.500002
v -0.526778 0.500002 1.500002
v -1.526778 0.500002 1.500002
v 2.473222 0.500002 0.500002
v 2.473222 0.500002 1.500002
v 1.473222 0.500002 1.500002
v -2.526778 0.500002 1.500002
v 0.473222 0.500002 1.500002
vn 0.000000 -1.000000 -0.000000
vn 0.447214 0.894427 0.000000
vn 0.000000 0.894427 -0.447214
vn 0.000000 0.000000 1.000000
vn -1.000000 0.000000 0.000000
vn 0.000000 -0.000001 1.000000
vn -0.000001 0.000000 1.000000
vn -0.000001 0.894427 -0.447213
vn 0.000001 -1.000000 0.000000
vn 0.000000 0.894427 -0.447213
vn 0.000000 -1.000000 -0.000001
vn -0.447214 0.894427 0.000001
vn -0.447214 0.894427 0.000000
vn 0.000000 0.000000 -1.000000
vn 0.000000 0.894427 0.447214
vn 0.000000 0.894427 0.447213
vn -1.000000 -0.000001 0.000000
vn -1.000000 0.000001 0.000000
vn 0.000001 0.000002 -1.000000
vn 0.000001 0.000000 -1.000000
vn 1.000000 0.000000 0.000000
vn 0.000000 0.000002 -1.000000
vn 1.000000 0.000001 0.000000
vn 1.000000 -0.000002 0.000000
vn 0.000000 1.000000 0.000000
usemtl Material.003
s off
f 179//1 180//1 3//1
f 1//2 4//2 181//2
f 182//3 183//3 5//3
f 182//4 181//4 180//4
f 180//5 181//5 4//5
f 5//3 183//3 184//3
f 179//4 185//4 183//4
f 2//1 6//1 185//1
f 184//3 186//3 9//3
f 185//6 187//6 184//6
f 6//1 8//1 187//1
f 9//3 186//3 188//3
f 187//7 189//7 186//7
f 8//1 10//1 189//1
f 11//8 188//8 190//8
f 189//6 191//6 188//6
f 10//1 12//1 191//1
f 190//3 192//3 15//3
f 191//6 193//6 190//6
f 191//9 12//9 14//9
f 192//3 194//3 17//3
f 193//7 195//7 192//7
f 14//1 16//1 195//1
f 17//3 194//3 196//3
f 195//4 197//4 194//4
f 16//1 18//1 197//1
f 19//10 196//10 23//10
f 197//6 198//6 196//6
f 18//1 20//1 198//1
f 198//6 24//6 23//6
f 20//11 28//11 25//11
f 20//1 21//1 24//1
f 28//1 32//1 29//1
f 19//12 22//12 26//12
f 32//1 36//1 33//1
f 26//13 30//13 31//13
f 36//1 40//1 37//1
f 30//13 34//13 35//13
f 40//1 44//1 41//1
f 34//13 38//13 39//13
f 44//1 48//1 45//1
f 38//13 42//13 43//13
f 48//1 52//1 49//1
f 42//13 46//13 47//13
f 52//1 56//1 53//1
f 47//13 46//13 50//13
f 56//1 199//1 57//1
f 50//13 54//13 55//13
f 200//14 58//14 57//14
f 55//13 54//13 58//13
f 200//15 201//15 123//15
f 201//15 202//15 124//15
f 56//1 203//1 204//1
f 199//14 204//14 201//14
f 205//1 206//1 61//1
f 202//15 207//15 136//15
f 203//1 208//1 209//1
f 204//14 209//14 202//14
f 207//15 210//15 137//15
f 208//1 211//1 212//1
f 209//14 212//14 207//14
f 208//1 213//1 214//1
f 210//15 215//15 138//15
f 211//1 216//1 217//1
f 212//14 217//14 210//14
f 215//16 218//16 139//16
f 216//1 219//1 220//1
f 217//14 220//14 215//14
f 219//1 222//1 223//1
f 218//15 224//15 127//15
f 219//1 221//1 225//1
f 220//14 225//14 218//14
f 224//15 226//15 59//15
f 221//1 205//1 227//1
f 225//14 227//14 224//14
f 59//15 226//15 228//15
f 205//1 60//1 230//1
f 227//14 230//14 226//14
f 56//1 80//1 231//1
f 232//5 229//5 228//5
f 60//1 232//1 233//1
f 230//14 233//14 228//14
f 60//1 64//1 234//1
f 64//1 66//1 235//1
f 229//2 236//2 63//2
f 232//5 234//5 236//5
f 66//1 68//1 237//1
f 236//2 238//2 65//2
f 234//5 235//5 238//5
f 68//1 70//1 239//1
f 238//2 240//2 67//2
f 238//5 235//5 237//5
f 70//1 72//1 241//1
f 240//2 242//2 69//2
f 237//17 239//17 242//17
f 72//1 74//1 243//1
f 242//2 244//2 71//2
f 239//5 241//5 244//5
f 74//1 76//1 245//1
f 244//2 246//2 73//2
f 241//18 243//18 246//18
f 76//1 78//1 247//1
f 73//2 246//2 248//2
f 243//5 245//5 248//5
f 248//2 249//2 77//2
f 245//5 247//5 249//5
f 231//1 250//1 251//1
f 223//1 252//1 253//1
f 214//1 255//1 256//1
f 80//1 85//1 250//1
f 216//1 254//1 222//1
f 203//1 231//1 213//1
f 221//1 223//1 206//1
f 211//1 214//1 254//1
f 85//1 88//1 257//1
f 258//1 259//1 260//1
f 251//1 261//1 262//1
f 254//1 256//1 258//1
f 206//1 253//1 82//1
f 213//1 251//1 255//1
f 222//1 258//1 252//1
f 263//1 264//1 91//1
f 265//1 266//1 267//1
f 257//1 268//1 269//1
f 255//1 262//1 265//1
f 252//1 260//1 263//1
f 250//1 257//1 261//1
f 256//1 265//1 259//1
f 253//1 263//1 83//1
f 268//1 270//1 271//1
f 272//1 273//1 274//1
f 275//1 276//1 277//1
f 90//1 97//1 270//1
f 261//1 269//1 275//1
f 259//1 267//1 272//1
f 88//1 90//1 268//1
f 262//1 275//1 266//1
f 260//1 272//1 264//1
f 278//1 279//1 280//1
f 271//1 281//1 282//1
f 274//1 283//1 95//1
f 266//1 277//1 278//1
f 264//1 274//1 94//1
f 269//1 271//1 276//1
f 267//1 278//1 273//1
f 283//1 284//1 103//1
f 285//1 286//1 287//1
f 288//1 289//1 290//1
f 280//1 291//1 284//1
f 97//1 100//1 288//1
f 276//1 282//1 285//1
f 273//1 280//1 283//1
f 270//1 288//1 281//1
f 277//1 285//1 279//1
f 291//1 118//1 120//1
f 292//1 112//1 114//1
f 102//1 105//1 108//1
f 287//1 116//1 118//1
f 281//1 290//1 292//1
f 279//1 287//1 291//1
f 100//1 102//1 289//1
f 282//1 292//1 286//1
f 289//1 108//1 110//1
f 286//1 114//1 116//1
f 284//1 120//1 122//1
f 290//1 110//1 112//1
f 2//1 179//1 3//1
f 182//3 1//3 181//3
f 1//3 182//3 5//3
f 179//4 182//4 180//4
f 3//5 180//5 4//5
f 7//3 5//3 184//3
f 182//4 179//4 183//4
f 179//1 2//1 185//1
f 7//3 184//3 9//3
f 183//7 185//7 184//7
f 185//1 6//1 187//1
f 11//10 9//10 188//10
f 184//6 187//6 186//6
f 187//1 8//1 189//1
f 13//3 11//3 190//3
f 186//7 189//7 188//7
f 189//1 10//1 191//1
f 13//3 190//3 15//3
f 188//6 191//6 190//6
f 193//9 191//9 14//9
f 15//3 192//3 17//3
f 190//6 193//6 192//6
f 193//1 14//1 195//1
f 19//10 17//10 196//10
f 192//4 195//4 194//4
f 195//1 16//1 197//1
f 22//13 19//13 23//13
f 194//7 197//7 196//7
f 197//1 18//1 198//1
f 196//6 198//6 23//6
f 21//11 20//11 25//11
f 198//1 20//1 24//1
f 25//1 28//1 29//1
f 27//12 19//12 26//12
f 29//1 32//1 33//1
f 27//13 26//13 31//13
f 33//1 36//1 37//1
f 31//13 30//13 35//13
f 37//1 40//1 41//1
f 35//13 34//13 39//13
f 41//1 44//1 45//1
f 39//13 38//13 43//13
f 45//1 48//1 49//1
f 43//13 42//13 47//13
f 49//1 52//1 53//1
f 51//13 47//13 50//13
f 53//1 56//1 57//1
f 51//13 50//13 55//13
f 199//14 200//14 57//14
f 200//15 55//15 58//15
f 55//15 200//15 123//15
f 123//15 201//15 124//15
f 199//1 56//1 204//1
f 200//14 199//14 201//14
f 60//1 205//1 61//1
f 124//15 202//15 136//15
f 204//1 203//1 209//1
f 201//14 204//14 202//14
f 136//15 207//15 137//15
f 209//1 208//1 212//1
f 202//14 209//14 207//14
f 211//1 208//1 214//1
f 137//15 210//15 138//15
f 212//1 211//1 217//1
f 207//14 212//14 210//14
f 138//15 215//15 139//15
f 217//1 216//1 220//1
f 210//14 217//14 215//14
f 221//1 219//1 223//1
f 139//15 218//15 127//15
f 220//1 219//1 225//1
f 215//14 220//14 218//14
f 127//15 224//15 59//15
f 225//1 221//1 227//1
f 218//14 225//14 224//14
f 229//2 59//2 228//2
f 227//1 205//1 230//1
f 224//14 227//14 226//14
f 203//1 56//1 231//1
f 233//5 232//5 228//5
f 230//1 60//1 233//1
f 226//14 230//14 228//14
f 232//1 60//1 234//1
f 234//1 64//1 235//1
f 59//2 229//2 63//2
f 229//5 232//5 236//5
f 235//1 66//1 237//1
f 63//2 236//2 65//2
f 236//5 234//5 238//5
f 237//1 68//1 239//1
f 65//2 238//2 67//2
f 240//5 238//5 237//5
f 239//1 70//1 241//1
f 67//2 240//2 69//2
f 240//5 237//5 242//5
f 241//1 72//1 243//1
f 69//2 242//2 71//2
f 242//5 239//5 244//5
f 243//1 74//1 245//1
f 71//2 244//2 73//2
f 244//5 241//5 246//5
f 245//1 76//1 247//1
f 75//2 73//2 248//2
f 246//5 243//5 248//5
f 75//2 248//2 77//2
f 248//18 245//18 249//18
f 213//1 231//1 251//1
f 206//1 223//1 253//1
f 254//1 214//1 256//1
f 231//1 80//1 250//1
f 219//1 216//1 222//1
f 208//1 203//1 213//1
f 205//1 221//1 206//1
f 216//1 211//1 254//1
f 250//1 85//1 257//1
f 252//1 258//1 260//1
f 255//1 251//1 262//1
f 222//1 254//1 258//1
f 61//1 206//1 82//1
f 214//1 213//1 255//1
f 223//1 222//1 252//1
f 83//1 263//1 91//1
f 259//1 265//1 267//1
f 261//1 257//1 269//1
f 256//1 255//1 265//1
f 253//1 252//1 263//1
f 251//1 250//1 261//1
f 258//1 256//1 259//1
f 82//1 253//1 83//1
f 269//1 268//1 271//1
f 264//1 272//1 274//1
f 266//1 275//1 277//1
f 268//1 90//1 270//1
f 262//1 261//1 275//1
f 260//1 259//1 272//1
f 257//1 88//1 268//1
f 265//1 262//1 266//1
f 263//1 260//1 264//1
f 273//1 278//1 280//1
f 276//1 271//1 282//1
f 94//1 274//1 95//1
f 267//1 266//1 278//1
f 91//1 264//1 94//1
f 275//1 269//1 276//1
f 272//1 267//1 273//1
f 95//1 283//1 103//1
f 279//1 285//1 287//1
f 281//1 288//1 290//1
f 283//1 280//1 284//1
f 270//1 97//1 288//1
f 277//1 276//1 285//1
f 274//1 273//1 283//1
f 271//1 270//1 281//1
f 278//1 277//1 279//1
f 284//1 291//1 120//1
f 286//1 292//1 114//1
f 289//1 102//1 108//1
f 291//1 287//1 118//1
f 282//1 281//1 292//1
f 280//1 279//1 291//1
f 288//1 100//1 289//1
f 285//1 282//1 286//1
f 290//1 289//1 110//1
f 287//1 286//1 116//1
f 103//1 284//1 122//1
f 292//1 290//1 112//1
usemtl Material.001
f 2//14 3//14 4//14
f 1//14 5//14 6//14
f 5//19 7//19 8//19
f 7//14 9//14 10//14
f 9//14 11//14 12//14
f 12//20 11//20 13//20
f 13//14 15//14 16//14
f 15//14 17//14 18//14
f 17//14 19//14 20//14
f 21//21 22//21 23//21
f 21//21 25//21 26//21
f 19//5 27//5 28//5
f 25//21 29//21 30//21
f 27//18 31//18 32//18
f 29//21 33//21 34//21
f 31//5 35//5 36//5
f 33//21 37//21 38//21
f 35//5 39//5 40//5
f 37//21 41//21 42//21
f 39//5 43//5 44//5
f 41//21 45//21 46//21
f 43//5 47//5 48//5
f 45//21 49//21 50//21
f 47//5 51//5 52//5
f 49//21 53//21 54//21
f 51//5 55//5 56//5
f 53//21 57//21 58//21
f 60//5 61//5 62//5
f 59//21 63//21 64//21
f 63//21 65//21 66//21
f 65//21 67//21 68//21
f 67//21 69//21 70//21
f 69//21 71//21 72//21
f 72//21 71//21 73//21
f 73//21 75//21 76//21
f 75//21 77//21 78//21
f 55//21 79//21 80//21
f 82//5 83//5 84//5
f 86//21 87//21 88//21
f 79//21 86//21 85//21
f 61//5 82//5 81//5
f 87//21 89//21 90//21
f 83//5 91//5 92//5
f 94//18 95//18 96//18
f 97//21 98//21 99//21
f 89//21 98//21 97//21
f 91//5 94//5 93//5
f 99//21 101//21 102//21
f 95//5 103//5 104//5
f 106//4 107//4 108//4
f 107//4 109//4 110//4
f 109//4 111//4 112//4
f 111//4 113//4 114//4
f 113//4 115//4 116//4
f 115//4 117//4 118//4
f 117//4 119//4 120//4
f 119//4 121//4 122//4
f 101//21 106//21 105//21
f 103//5 122//5 121//5
f 1//14 2//14 4//14
f 2//14 1//14 6//14
f 6//14 5//14 8//14
f 8//19 7//19 10//19
f 10//14 9//14 12//14
f 14//22 12//22 13//22
f 14//19 13//19 16//19
f 16//14 15//14 18//14
f 18//14 17//14 20//14
f 24//21 21//21 23//21
f 22//21 21//21 26//21
f 20//5 19//5 28//5
f 26//21 25//21 30//21
f 28//5 27//5 32//5
f 30//23 29//23 34//23
f 32//17 31//17 36//17
f 34//21 33//21 38//21
f 36//5 35//5 40//5
f 38//21 37//21 42//21
f 40//5 39//5 44//5
f 42//21 41//21 46//21
f 44//5 43//5 48//5
f 46//21 45//21 50//21
f 48//5 47//5 52//5
f 50//21 49//21 54//21
f 52//5 51//5 56//5
f 54//21 53//21 58//21
f 59//5 60//5 62//5
f 60//21 59//21 64//21
f 64//21 63//21 66//21
f 66//21 65//21 68//21
f 68//21 67//21 70//21
f 70//21 69//21 72//21
f 74//24 72//24 73//24
f 74//21 73//21 76//21
f 76//21 75//21 78//21
f 56//21 55//21 80//21
f 81//5 82//5 84//5
f 85//21 86//21 88//21
f 80//21 79//21 85//21
f 62//5 61//5 81//5
f 88//21 87//21 90//21
f 84//5 83//5 92//5
f 93//5 94//5 96//5
f 100//23 97//23 99//23
f 90//21 89//21 97//21
f 92//5 91//5 93//5
f 100//21 99//21 102//21
f 96//5 95//5 104//5
f 105//4 106//4 108//4
f 108//4 107//4 110//4
f 110//4 109//4 112//4
f 112//4 111//4 114//4
f 114//4 113//4 116//4
f 116//4 115//4 118//4
f 118//4 117//4 120//4
f 120//4 119//4 122//4
f 102//21 101//21 105//21
f 104//5 103//5 121//5
usemtl Material.002
f 124//25 125//25 126//25
f 59//25 62//25 128//25
f 129//25 130//25 131//25
f 133//25 134//25 135//25
f 137//25 132//25 129//25
f 139//25 140//25 133//25
f 131//25 142//25 143//25
f 135//25 144//25 145//25
f 126//25 141//25 86//25
f 128//25 146//25 147//25
f 143//25 148//25 89//25
f 145//25 149//25 150//25
f 81//25 84//25 151//25
f 147//25 152//25 153//25
f 92//25 93//25 155//25
f 150//25 156//25 157//25
f 151//25 154//25 158//25
f 153//25 159//25 160//25
f 155//25 162//25 163//25
f 157//25 164//25 99//25
f 158//25 161//25 165//25
f 160//25 166//25 167//25
f 163//25 169//25 170//25
f 165//25 168//25 171//25
f 167//25 172//25 173//25
f 175//25 111//25 109//25
f 170//25 115//25 113//25
f 171//25 176//25 175//25
f 173//25 174//25 177//25
f 96//25 104//25 178//25
f 177//25 107//25 106//25
f 178//25 119//25 117//25
f 123//25 124//25 126//25
f 127//25 59//25 128//25
f 125//25 129//25 131//25
f 132//25 133//25 135//25
f 136//25 137//25 129//25
f 138//25 139//25 133//25
f 141//25 131//25 143//25
f 130//25 135//25 145//25
f 79//25 126//25 86//25
f 140//25 128//25 147//25
f 87//25 143//25 89//25
f 142//25 145//25 150//25
f 146//25 81//25 151//25
f 134//25 147//25 153//25
f 154//25 92//25 155//25
f 148//25 150//25 157//25
f 152//25 151//25 158//25
f 144//25 153//25 160//25
f 161//25 155//25 163//25
f 98//25 157//25 99//25
f 159//25 158//25 165//25
f 149//25 160//25 167//25
f 168//25 163//25 170//25
f 166//25 165//25 171//25
f 156//25 167//25 173//25
f 174//25 175//25 109//25
f 176//25 170//25 113//25
f 172//25 171//25 175//25
f 164//25 173//25 177//25
f 162//25 96//25 178//25
f 101//25 177//25 106//25
f 169//25 178//25 117//25
usemtl Material.004
f 138//25 133//25 132//25
f 140//25 147//25 134//25
f 62//25 81//25 146//25
f 127//25 128//25 140//25
f 123//25 126//25 79//25
f 136//25 129//25 125//25
f 146//25 151//25 152//25
f 132//25 135//25 130//25
f 125//25 131//25 141//25
f 144//25 160//25 149//25
f 152//25 158//25 159//25
f 134//25 153//25 144//25
f 130//25 145//25 142//25
f 141//25 143//25 87//25
f 149//25 167//25 156//25
f 159//25 165//25 166//25
f 142//25 150//25 148//25
f 84//25 92//25 154//25
f 166//25 171//25 172//25
f 148//25 157//25 98//25
f 154//25 155//25 161//25
f 164//25 177//25 101//25
f 172//25 175//25 174//25
f 156//25 173//25 164//25
f 93//25 96//25 162//25
f 161//25 163//25 168//25
f 104//25 121//25 119//25
f 174//25 109//25 107//25
f 162//25 178//25 169//25
f 168//25 170//25 176//25
f 169//25 117//25 115//25
f 176//25 113//25 111//25
f 137//25 138//25 132//25
f 133//25 140//25 134//25
f 128//25 62//25 146//25
f 139//25 127//25 140//25
f 55//25 123//25 79//25
f 124//25 136//25 125//25
f 147//25 146//25 152//25
f 129//25 132//25 130//25
f 126//25 125//25 141//25
f 145//25 144//25 149//25
f 153//25 152//25 159//25
f 135//25 134//25 144//25
f 131//25 130//25 142//25
f 86//25 141//25 87//25
f 150//25 149//25 156//25
f 160//25 159//25 166//25
f 143//25 142//25 148//25
f 151//25 84//25 154//25
f 167//25 166//25 172//25
f 89//25 148//25 98//25
f 158//25 154//25 161//25
f 99//25 164//25 101//25
f 173//25 172//25 174//25
f 157//25 156//25 164//25
f 155//25 93//25 162//25
f 165//25 161//25 168//25
f 178//25 104//25 119//25
f 177//25 174//25 107//25
f 163//25 162//25 169//25
f 171//25 168//25 176//25
f 170//25 169//25 115//25
f 175//25 176//25 111//25
